<svg version="1.1" xmlns="http://www.w3.org/2000/svg" xmlns:xlink="http://www.w3.org/1999/xlink" width="128px" height="128px" viewBox="0,0,256,256"><defs><linearGradient x1="-11.8991" y1="48.6943" x2="40.2992" y2="-8.3222" gradientUnits="userSpaceOnUse" id="color-1"><stop offset="0" stop-color="#1c93c1"></stop><stop offset="0.1625" stop-color="#2391c0"></stop><stop offset="0.4043" stop-color="#378bbe"></stop><stop offset="0.6955" stop-color="#587eb9"></stop><stop offset="0.9952" stop-color="#7f6cb1"></stop></linearGradient><linearGradient x1="43.5526" y1="149.1739" x2="95.9878" y2="94.8756" gradientUnits="userSpaceOnUse" id="color-2"><stop offset="0" stop-color="#1c93c1"></stop><stop offset="0.2156" stop-color="#2d8ebf"></stop><stop offset="0.6399" stop-color="#587eb9"></stop><stop offset="0.9952" stop-color="#7f6cb1"></stop></linearGradient><linearGradient x1="3.2398" y1="95.2486" x2="92.4815" y2="2.1156" gradientUnits="userSpaceOnUse" id="color-3"><stop offset="0" stop-color="#c757a7"></stop><stop offset="0.04551" stop-color="#ca5a9e"></stop><stop offset="0.2413" stop-color="#d66779"></stop><stop offset="0.428" stop-color="#e17357"></stop><stop offset="0.6004" stop-color="#e97c3a"></stop><stop offset="0.7556" stop-color="#ef8324"></stop><stop offset="0.8879" stop-color="#f28817"></stop><stop offset="0.9819" stop-color="#f48912"></stop></linearGradient></defs><g transform="translate(24.32,24.32) scale(0.81,0.81)"><g fill="none" fill-rule="nonzero" stroke="none" stroke-width="1" stroke-linecap="butt" stroke-linejoin="miter" stroke-miterlimit="10" stroke-dasharray="" stroke-dashoffset="0" font-family="none" font-weight="none" font-size="none" text-anchor="none" style="mix-blend-mode: normal"><g transform="translate(1,-30.2) scale(2,2)"><path d="M0,0h65.4l-65.4,64.4z" fill="url(#color-1)"></path><path d="M128,128l-63.4,-65.4l-64.6,65.4z" fill="url(#color-2)"></path><path d="M0,128l128,-128h-63.4l-64.6,63.7z" fill="url(#color-3)"></path></g></g><g fill="none" fill-rule="nonzero" stroke="none" stroke-width="none" stroke-linecap="butt" stroke-linejoin="miter" stroke-miterlimit="10" stroke-dasharray="" stroke-dashoffset="0" font-family="none" font-weight="none" font-size="none" text-anchor="none" style="mix-blend-mode: normal"><g fill="#e2893d" stroke="none" stroke-width="1"><path d="M96.54,265.345l-7.67,-11.98l-3.2,3.45v8.53h-6.15v-29.86h6.15v13.54l2.71,-3.72l7.6,-9.82h7.57l-10.6,13.27l10.91,16.59zM104.31,254.315v-0.27c0,-2.2 0.42333,-4.16333 1.27,-5.89c0.84667,-1.72 2.06667,-3.05 3.66,-3.99c1.59333,-0.94667 3.44333,-1.42 5.55,-1.42v0c2.99333,0 5.43667,0.91667 7.33,2.75c1.89333,1.83333 2.95,4.32 3.17,7.46v0l0.04,1.52c0,3.40667 -0.95,6.13667 -2.85,8.19c-1.9,2.06 -4.45,3.09 -7.65,3.09c-3.2,0 -5.75333,-1.02667 -7.66,-3.08c-1.90667,-2.04667 -2.86,-4.83333 -2.86,-8.36zM110.24,254.475v0c0,2.10667 0.39667,3.71667 1.19,4.83c0.79333,1.11333 1.92667,1.67 3.4,1.67v0c1.43333,0 2.55333,-0.55 3.36,-1.65c0.80667,-1.1 1.21,-2.86 1.21,-5.28v0c0,-2.06667 -0.40333,-3.66667 -1.21,-4.8c-0.80667,-1.13333 -1.94,-1.7 -3.4,-1.7v0c-1.44667,0 -2.56667,0.56333 -3.36,1.69c-0.79333,1.12667 -1.19,2.87333 -1.19,5.24zM130.15,237.705h5.93v5.45h3.79v4.35h-3.79v11.07c0,0.82 0.15667,1.41 0.47,1.77c0.31333,0.35333 0.91333,0.53 1.8,0.53v0c0.66,0 1.24333,-0.04667 1.75,-0.14v0v4.49c-1.16667,0.35333 -2.36333,0.53 -3.59,0.53v0c-4.16,0 -6.28,-2.1 -6.36,-6.3v0v-11.95h-3.24v-4.35h3.24zM149.43,233.845v31.5h-5.95v-31.5zM160.56,243.155v22.19h-5.94v-22.19zM154.27,237.415v0c0,-0.88667 0.29667,-1.62 0.89,-2.2c0.59333,-0.57333 1.40333,-0.86 2.43,-0.86v0c1.01333,0 1.82,0.28667 2.42,0.86c0.6,0.58 0.9,1.31333 0.9,2.2v0c0,0.9 -0.30333,1.63667 -0.91,2.21c-0.60667,0.57333 -1.41,0.86 -2.41,0.86c-1,0 -1.80333,-0.28667 -2.41,-0.86c-0.60667,-0.57333 -0.91,-1.31 -0.91,-2.21zM165.32,243.155h5.58l0.18,2.56c1.58667,-1.98 3.71333,-2.97 6.38,-2.97v0c2.35333,0 4.10333,0.69 5.25,2.07c1.14667,1.38 1.73667,3.44667 1.77,6.2v0v14.33h-5.93v-14.19c0,-1.26 -0.27333,-2.17333 -0.82,-2.74c-0.54667,-0.56667 -1.45667,-0.85 -2.73,-0.85v0c-1.66667,0 -2.91667,0.71 -3.75,2.13v0v15.65h-5.93z"></path></g></g></g></svg>